<svg height='60px' width='100px'  fill="#1C0658" xmlns="http://www.w3.org/2000/svg" xmlns:xlink="http://www.w3.org/1999/xlink" version="1.1" x="0px" y="0px" viewBox="0 15 100 75" enable-background="new 0 0 100 100" xml:space="preserve"><g><circle fill="#1C0658" cx="29.3" cy="41.1" r="1.1"></circle><path fill="#1C0658" d="M94.7,53.3c-0.9-1.8-2.1-2.7-3.8-2.7c-0.7,0-1.6,0.3-2.6,0.6c-1,0.3-2.2,0.7-3.3,0.8   c-0.1-0.4-0.2-1.1-0.2-1.9c4-0.1,7.3-3.4,7.3-7.4c0-4.1-3.3-7.4-7.4-7.4c-3.5,0-6.5,2.5-7.2,5.8c-0.2-0.1-0.4-0.1-0.6-0.1   c-0.1-0.3-0.3-0.7-0.4-1.1c-0.2-0.6-1-0.9-1.6-0.7c-0.6,0.2-0.9,0.8-0.7,1.4c-0.4,0-0.8,0-0.9,0c-0.6,0-7.6-0.2-11.6,3.8   c-1.5,1.5-1.5,3.7-0.1,6L35.3,62.1h-0.8l-0.3-0.5l-3.1-11.9l0.6-2.6c0.4,0,0.9,0,1.2,0c0.1,0,0.1,0,0.2,0c2.3,0,3.7-2.1,3.9-4.2   l0.2-2.1c0.1-0.6-0.3-1.1-0.9-1.3l-3.9-1.2c-0.5-1.1-1.9-3.2-6.4-3c-4.1,0.1-6.2,4.9-6.3,5.3c-0.2,0.4-1.4,3.4-0.3,5.4   c0,0.1,0.1,0.1,0.1,0.2C16,50,14,54.9,12.9,58.3c-0.8-0.5-0.8-1.1-0.8-3c0-0.3,0-0.7,0.1-1.1c0.2-1.8,0.4-4.9-2.3-5.6   c-1.6-0.4-2.6,0-3.2,0.5c-1.6,1.2-1.6,3.5-1.6,4c0,0.8-0.2,5.9,1.9,9c-0.5,0.2-0.9,0.6-0.9,1.1c0,0.7,0.5,1.2,1.2,1.2h3.3v3.6h-4   c-0.7,0-1.2,0.5-1.2,1.2c0,0.7,0.5,1.2,1.2,1.2H37c0,0,0,0,0,0c0.4,0,2.6-0.1,4.2-1.6c1.1-1,1.6-2.4,1.6-4.2c0-0.7-0.5-1.2-1.2-1.2   c-0.7,0-1.2,0.5-1.2,1.2c0,1.1-0.3,1.9-0.9,2.5c-1,1-2.5,0.9-2.5,0.9c0,0,0,0,0,0h-5v-3.6h3.6c0,0,0,0,0,0c0.1,0,0.2,0,0.2,0   c0,0,0,0,0,0c0,0,0.1,0,0.1,0c0.1,0,0.2,0.1,0.3,0.1c0.1,0,0.2,0,0.4-0.1l24.6-7.5c0,0.7,0.1,1.3,0.3,1.7c0,0.1,0.1,0.2,0.1,0.3   c-0.5,0.5-1.6,1.2-3.7,2.1c-1.7,0.7-5.9,1.6-7.1,1.8c-1.4,0.3-2.6,1-3.3,2c-0.5,0.8-0.7,1.7-0.4,2.6c0.5,1.9,2.3,2.9,5.3,2.9   c2.9,0,11.8-2.1,17-7.2c2.2,0.1,5,0.1,6.7,0.1c-0.5,3.3-0.2,5.8,1,7.2c0.6,0.7,1.4,1.1,2.3,1.1c0,0,0,0,0,0c3.4,0,4.8-1.1,5.7-7.2   c0.2-1.5,0.3-2.8,0.3-3.9c0.1,0,0.2,0,0.3,0c1.4,0,3.7-0.3,6.5-1.9C94.8,57.1,95.4,54.8,94.7,53.3z M12,61.9h-0.8   c-0.7,0-1.3-0.2-1.8-0.8c-1.8-1.8-1.9-6.4-1.9-8c0,0,0,0,0-0.1c0-0.5,0.2-1.7,0.7-2.1C8.3,51,8.6,50.8,9.3,51   c0.7,0.2,0.6,1.5,0.5,3.1c0,0.5-0.1,0.9-0.1,1.3c0,2.7,0.1,4.2,2.6,5.4C12.2,61.2,12.1,61.6,12,61.9z M29.6,68.1H13.1v-3.6h16.5   V68.1z M26.2,59.1l0.9-1.3l1.5,4.3H28C27.8,60.7,27,59.7,26.2,59.1z M31.1,61.9l-2.9-8.5c-0.2-0.6-0.9-1-1.5-0.8   c-0.6,0.2-1,0.9-0.8,1.5l0.2,0.6L24,58c-0.4-1.5-1.5-2.4-2.2-2.7c-0.6-0.3-1.3,0-1.6,0.6c-0.3,0.6,0,1.3,0.6,1.6   c0,0,0.8,0.4,0.8,1.6c0,0.7,0.5,1.2,1.2,1.2c0.1,0,0.5,0,1,0.2c0.1,0.1,0.2,0.1,0.3,0.1c0.5,0.2,1,0.6,1.3,1.3h-11   c0.5-2.4,2.4-9.5,7-14.3c0.1,0,0.3,0.1,0.4,0.1c0.3,0.1,0.6,0.1,0.9,0.1c1,0,1.8-0.4,2.2-0.8c1.6-1.3,1.7-3.8,1.7-4.1   c0-0.7-0.5-1.2-1.2-1.2c-0.7,0-1.2,0.5-1.2,1.2c0,0.4-0.1,1.7-0.8,2.2c-0.2,0.1-0.5,0.3-1.1,0.2c-0.5-0.1-0.7-0.3-0.8-0.5   c-0.4-0.9,0.1-2.6,0.4-3.4c0,0,0,0,0,0c0,0,0,0,0,0c0,0,1.5-3.7,4.2-3.8c3.5-0.1,4,1.2,4.3,1.9c0,0.1,0,0.1,0.1,0.1   c0.1,0.3,0.4,0.6,0.8,0.7l3.5,1l-0.1,1.2c-0.1,1-0.7,2.1-1.6,2c-0.7,0-2.3,0-2.3,0c0,0-0.1,0-0.1,0c0,0-0.1,0-0.1,0   c0,0-0.1,0-0.1,0c0,0-0.1,0-0.1,0c0,0-0.1,0-0.1,0c0,0-0.1,0-0.1,0.1c0,0-0.1,0-0.1,0.1c0,0-0.1,0.1-0.1,0.1c0,0,0,0.1-0.1,0.1   c0,0-0.1,0.1-0.1,0.1c0,0,0,0.1-0.1,0.1c0,0,0,0.1-0.1,0.1c0,0,0,0.1,0,0.1c0,0,0,0.1,0,0.1l-0.8,3.9c0,0.2,0,0.4,0,0.6l3.1,11.9   H31.1z M84.6,37.6c2.8,0,5,2.3,5,5s-2.3,5-5,5s-5-2.3-5-5S81.8,37.6,84.6,37.6z M63.3,46c3.3-3.3,9.7-3.1,9.8-3.1c0,0,0,0,0.1,0   c0,0,0,0,0,0c0.5,0,1.1,0,1.8,0.1c1.4,4.5,0.6,6,0.2,6.5c-0.6,0.7-1.7,0.7-2.4,0.6c-0.1-0.4-0.3-0.8-0.5-1.1h1.3   c0.7,0,1.2-0.5,1.2-1.2c0-0.7-0.5-1.2-1.2-1.2h-4.2c-0.5,0-1,0.4-1.2,0.9c-0.2,0.5,0.1,1.1,0.5,1.4c0.6,0.4,1.8,1.4,1.8,2.3   c0,0.5-0.4,0.9-1.1,1.4c-0.9,0.6-3.4-0.4-5.2-2.6C63.8,49.5,62,47.2,63.3,46z M51.9,57.2l11-4.9c0,0,0,0,0.1,0c0,0,0,0,0.1,0.1   c-0.5,0.7-0.9,1.3-1.2,1.9c0,0-0.1,0-0.1,0L51.9,57.2z M52.5,67.9c-2.7,0-2.9-0.8-3-1.1c-0.1-0.2,0-0.5,0.1-0.7   c0.3-0.4,0.9-0.8,1.7-0.9c1-0.2,5.5-1.1,7.6-2c2.1-0.9,3.4-1.7,4.1-2.3c0.9,0.9,2.1,1.5,3.2,1.8C61.5,66.4,54.7,67.9,52.5,67.9z    M82.6,64c-0.7,5.1-1.4,5.1-3.3,5.1c-0.1,0-0.3,0-0.4-0.2c-0.6-0.7-1-2.8-0.2-6.6c0.1-0.4,0-0.7-0.3-1c-0.2-0.3-0.6-0.4-1-0.4   c-0.1,0-7.9,0.2-10.4-0.3c-1.2-0.2-2.8-1.2-3.3-2.6c-0.4-1.2,0-2.5,1.1-4c1.2,0.8,2.6,1.3,3.8,1.3c0.7,0,1.4-0.2,2-0.6   c1-0.7,1.5-1.4,1.8-2c0.2,0,0.5,0,0.8,0c1.1,0,2.6-0.3,3.6-1.4c1-1.1,1.4-2.7,1.2-4.9c0.7,1.2,1.7,2.2,2.8,2.8   c-1.4,2.2-3.5,4.9-3.5,4.9c0,0-0.1,0.1-0.1,0.1c-2-0.1-3.7,0-4,0c-0.7,0-1.2,0.6-1.1,1.3c0,0.7,0.6,1.2,1.3,1.1   c2.7-0.2,7.6,0.1,9,1.5C82.6,58.2,83.3,59.1,82.6,64z M91,56.5c-3,1.7-5.2,1.6-5.9,1.5c-0.2-0.7-0.5-1.2-0.9-1.6   c-0.9-0.9-2.5-1.5-4.1-1.8c0.6-0.8,1.5-2,2.3-3.2c0.1,1,0.4,2.1,0.9,2.6c0.3,0.3,0.8,0.5,1.2,0.5c1.6,0,3.2-0.5,4.5-1   c0.7-0.2,1.5-0.5,1.9-0.5c0.7,0,1.1,0.4,1.6,1.3C92.6,54.6,92.5,55.6,91,56.5z"></path><path fill="#F4D676" d="M78.3,32.1c0.2,0.1,0.4,0.2,0.6,0.3c0.1,0,0.2,0.2,0.2,0.3c0.2,0.4,0.6,0.7,1.1,0.7c0.1,0,0.2,0,0.3,0   c0.6-0.2,0.9-0.7,0.9-1.3c-0.3-1.6-1.2-3.5-3-3.5c-0.3,0-0.6,0.1-1,0.2c-0.9,0.4-1.1,1-1.1,1.4C76.3,31.1,77.3,31.6,78.3,32.1z"></path><path fill="#F4D676" d="M72.6,36.1c0.3,0,0.7-0.1,1.1-0.2c0.3-0.1,0.7-0.1,1.1-0.1l0.2,0c0.5,0,1.1-0.3,1.2-0.8   c0.2-0.5,0-1.1-0.4-1.4c-0.4-0.3-1.8-1.2-3-1.2c-1.1,0-1.9,0.8-2,2c0,0.4,0.1,0.8,0.4,1.1C71.6,36,72,36.1,72.6,36.1z"></path></g></svg>