<svg height="512" viewBox="0 0 64 64" width="512" xmlns="http://www.w3.org/2000/svg"><g id="Robotics_Arm-2" data-name="Robotics Arm"><path d="m55 54h-5.382l-4.718-9.447a1 1 0 0 0 -.9-.553h-7.11a6.929 6.929 0 0 0 1.883-6.738l11.308-19.578a7 7 0 1 0 -6.971-11.684h-23.11a1 1 0 0 0 -1 1v1h-2.525a9.008 9.008 0 0 0 -8.475-6h-2a1 1 0 0 0 -1 1v4a1 1 0 0 0 1 1h2a3 3 0 0 1 0 6h-2a1 1 0 0 0 -1 1v4a1 1 0 0 0 1 1h2a9.008 9.008 0 0 0 8.475-6h2.525v1a1 1 0 0 0 1 1h19.516l-9.4 16.264a6.987 6.987 0 0 0 -3.006 11.736h-7.11a1 1 0 0 0 -.895.553l-4.723 9.447h-5.382a1 1 0 0 0 -1 1v6a1 1 0 0 0 1 1h46a1 1 0 0 0 1-1v-6a1 1 0 0 0 -1-1zm-47-36h-1v-2h1a5 5 0 0 0 0-10h-1v-2h1a7 7 0 0 1 0 14zm8.941-6a8.5 8.5 0 0 0 0-2h2.059v2zm15.624 20.029 9.774-16.929a6.991 6.991 0 0 0 5.261 2.88l-9.845 17.046a7 7 0 0 0 -5.19-2.997zm15.435-26.029a5 5 0 1 1 -5 5 5.006 5.006 0 0 1 5-5zm-27 8v-6h20.685a6.9 6.9 0 0 0 -.4 4.946l-.613 1.054zm6 25a5 5 0 1 1 5 5 5.006 5.006 0 0 1 -5-5zm-6.382 7h22.764l4 8h-30.764zm33.382 14h-44v-4h44z"/><path d="m32 36a3 3 0 1 0 3 3 3 3 0 0 0 -3-3zm0 4a1 1 0 1 1 1-1 1 1 0 0 1 -1 1z"/><path d="m48 14a3 3 0 1 0 -3-3 3 3 0 0 0 3 3zm0-4a1 1 0 1 1 -1 1 1 1 0 0 1 1-1z"/><path d="m19 18h2v2h-2z"/><path d="m23 18h8v2h-8z"/><path d="m41 29.804h12v2h-12z" transform="matrix(.5 -.866 .866 .5 -3.175 56.11)"/><path d="m50.5 22.009h2v2h-2z" transform="matrix(.5 -.866 .866 .5 5.826 56.109)"/><path d="m58.78 8.8-1.96.4a9.1 9.1 0 0 1 .18 1.8 8.922 8.922 0 0 1 -1.8 5.4l1.6 1.2a10.9 10.9 0 0 0 2.2-6.6 11.068 11.068 0 0 0 -.22-2.2z"/><path d="m58.084 6.6a11 11 0 0 0 -1.284-2.2l-1.6 1.2a8.933 8.933 0 0 1 1.05 1.8z"/></g></svg>