<svg xmlns="http://www.w3.org/2000/svg" viewBox="0 0 64 80" x="0px" y="0px"><title>chassis-car-auto-mechanic-repair</title><g><path d="M61,21H51V19h5a1,1,0,0,0,1-1V12a1,1,0,0,0-1-1H44a1,1,0,0,0-1,1v6a1,1,0,0,0,1,1h5v2H32a1,1,0,0,0-.164.014L19.917,23H17V22a1,1,0,0,0-.293-.707L14.414,19H18a1,1,0,0,0,1-1V12a1,1,0,0,0-1-1H6a1,1,0,0,0-1,1v6a1,1,0,0,0,1,1h5v4H3a1,1,0,0,0-1,1V40a1,1,0,0,0,1,1h8v4H6a1,1,0,0,0-1,1v6a1,1,0,0,0,1,1H18a1,1,0,0,0,1-1V46a1,1,0,0,0-1-1H14.414l2.293-2.293A1,1,0,0,0,17,42V41h2.917l11.919,1.986A1,1,0,0,0,32,43H49v2H44a1,1,0,0,0-1,1v6a1,1,0,0,0,1,1H56a1,1,0,0,0,1-1V46a1,1,0,0,0-1-1H51V43H61a1,1,0,0,0,1-1V22A1,1,0,0,0,61,21ZM25,31h1v2H25ZM15,22.414V23H13V20.414ZM15,25v2H13V25ZM7,17V13H17v4ZM4,39V25h7v2H8a1,1,0,0,0-1,1v8a1,1,0,0,0,1,1h3v2Zm13,8v4H7V47Zm-2-5.414-2,2V41h2ZM15,39H13V37h2ZM9,35V29H19v6Zm14,4.486-2.836-.472A1,1,0,0,0,20,39H17V37h3a1,1,0,0,0,1-1V35h2ZM23,33H21V31h2Zm0-4H21V28a1,1,0,0,0-1-1H17V25h3a1,1,0,0,0,.164-.014L23,24.514ZM38,41H32.083L25,39.82V35h2a1,1,0,0,0,1-1V33H38Zm0-10H28V30a1,1,0,0,0-1-1H25V24.18L32.083,23H38Zm7-14V13H55v4Zm-5,6h9v5.142A3.991,3.991,0,0,0,46.142,31H40Zm0,18V33h6.142A3.991,3.991,0,0,0,49,35.858V41Zm15,6v4H45V47ZM50,34a2,2,0,1,1,2-2A2,2,0,0,1,50,34Zm10,7H51V35.858a3.981,3.981,0,0,0,0-7.716V23h9Z"/></g><text x="0" y="79" fill="#000000" font-size="5px" font-weight="bold" font-family="'Helvetica Neue', Helvetica, Arial-Unicode, Arial, Sans-serif">Created by monkik</text><text x="0" y="84" fill="#000000" font-size="5px" font-weight="bold" font-family="'Helvetica Neue', Helvetica, Arial-Unicode, Arial, Sans-serif">from the Noun Project</text></svg>