<svg height='100px' width='100px'  fill="#1C0658" xmlns="http://www.w3.org/2000/svg" xmlns:xlink="http://www.w3.org/1999/xlink" version="1.1" x="0px" y="0px" viewBox="0 0 164 164" enable-background="new 0 0 164 164" xml:space="preserve"><g><g><path d="M161.9,83.1c0-28-14.2-53.4-38-68.1v-4c0-0.4-0.2-0.7-0.5-0.9l-15.7-9.1c-0.3-0.2-0.7-0.2-1,0l-7.1,4.1    C94.3,4,88.8,3.4,83.4,3.3L83,1.8c-0.1-0.4-0.5-0.8-1-0.8h-7.6c-0.5,0-0.9,0.3-1,0.8l-0.4,2c-7.4,0.8-14.6,2.7-21.5,5.5    c-1.3-1.3-2.7-2.5-4.4-3.5c-0.3-0.2-0.7-0.2-1,0c-0.3,0.2-0.5,0.5-0.5,0.9V12c-6.6,3.4-12.8,7.7-18.2,12.8l-0.7-0.4V6.6    c0-0.4-0.2-0.7-0.5-0.9c-0.3-0.2-0.7-0.2-1,0c-6.3,3.9-10.1,10.6-10.1,18c0,4.1,1.2,7.9,3.2,11.1C7.8,48.8,2.1,65.5,2.1,83.1    C2.1,127,37.9,163,82,163c20.8,0,40.6-8,55.5-22.5h6.3c0.5,0,1-0.4,1-1v-7.1C156,118.2,161.9,101.2,161.9,83.1z M107.2,3.1    l14.7,8.5v17l-14.7,8.5l-14.7-8.5v-17L107.2,3.1z M97.1,6.7L91,10.2c-0.3,0.2-0.5,0.5-0.5,0.9v18.1c0,0.4,0.2,0.7,0.5,0.9    l15.7,9.1c0.2,0.1,0.3,0.1,0.5,0.1c0.2,0,0.3,0,0.5-0.1l15.7-9.1c0.3-0.2,0.5-0.5,0.5-0.9V17.4c22.6,14.4,36.1,38.8,36.1,65.7    c0,16.8-5.2,32.6-15.1,46V85.3c0-9.3-5.7-17.5-14.4-20.6V50.3h0.6c1.7,0,3.2-1.4,3.2-3.2v-4.6c0-1.7-1.4-3.2-3.2-3.2h-16.5    c-1.7,0-3.2,1.4-3.2,3.2v4.6c0,1.7,1.4,3.2,3.2,3.2h0.6v14.4c-8.6,3.2-14.4,11.4-14.4,20.6v53.3H90.2c1.7-1.5,2.8-3.7,2.8-6.1v-43    c0-2.1-1.7-3.9-3.9-3.9h-0.2c-1.9,0-3.5-1.6-3.5-3.5c0-1.9,1.6-3.5,3.5-3.5h0.4c2,0,3.6-1.6,3.6-3.6s-1.6-3.6-3.6-3.6h-6.5V23.8    c0,0,0-0.1,0.1-0.1l3.3-6.5c0.1-0.2,0.1-0.4,0.1-0.7L83.8,5.3C88.2,5.3,92.7,5.8,97.1,6.7z M114.6,48.3c-0.7,0-1.2-0.5-1.2-1.2    v-4.6c0-0.7,0.5-1.2,1.2-1.2h16.5c0.7,0,1.2,0.5,1.2,1.2v4.6c0,0.7-0.5,1.2-1.2,1.2H114.6z M66.4,132.4v-43c0-1,0.8-1.9,1.9-1.9    h0.2c3,0,5.5-2.5,5.5-5.5s-2.5-5.5-5.5-5.5h-0.4c-0.9,0-1.7-0.8-1.7-1.7c0-0.9,0.8-1.7,1.7-1.7c7.9,0,14.2,0,21.2,0    c2.2,0,2.2,3.4,0,3.4h-0.4c-3,0-5.5,2.5-5.5,5.5s2.5,5.5,5.5,5.5h0.2c1,0,1.9,0.8,1.9,1.9v43c0,3.4-2.7,6.1-6.1,6.1H72.6    C69.2,138.6,66.4,135.8,66.4,132.4z M75.6,24.2h5.3v47.1h-5.3V24.2z M81.3,3l3.1,13.6l-2.9,5.6H75l-2.9-5.6l3-13.6H81.3z     M72.6,5.8l-2.4,10.7c-0.1,0.2,0,0.5,0.1,0.7l3.3,6.5c0,0,0.1,0.1,0.1,0.1v47.5h-5.5c-2,0-3.6,1.6-3.6,3.6s1.6,3.6,3.6,3.6h0.4    c1.9,0,3.5,1.6,3.5,3.5c0,1.9-1.6,3.5-3.5,3.5h-0.2c-2.1,0-3.9,1.7-3.9,3.9v43c0,2.4,1.1,4.6,2.8,6.1H45.1    c7.2-3.3,12.2-10.6,12.2-19.1c0-7.7-4.1-14.3-10.2-18V41.8c6.1-3.7,10.2-10.4,10.2-18c0-4.8-1.6-9.2-4.4-12.9    C59.2,8.3,65.8,6.6,72.6,5.8z M27.3,138.5c0,0,0.1,0,0.1,0.1L27.3,138.5C27.3,138.5,27.3,138.5,27.3,138.5z M17.2,119.5    c0-10.5,8.6-19.1,19.1-19.1c10.5,0,19.1,8.6,19.1,19.1s-8.6,19.1-19.1,19.1C25.7,138.6,17.2,130,17.2,119.5z M36.2,44.8    c3.2,0,6.1-0.7,8.8-2v57.6c-2.7-1.3-5.7-2-8.8-2c-3.2,0-6.2,0.7-8.9,2V42.8C30.1,44.1,33.1,44.8,36.2,44.8z M45.7,14.2v10.2    l-9.4,5.5l-7-4C34.2,21.2,39.7,17.3,45.7,14.2z M24.8,8.4v16.5c0,0.4,0.2,0.7,0.5,0.9l10.4,6c0.3,0.2,0.7,0.2,1,0l10.4-6    c0.3-0.2,0.5-0.5,0.5-0.9V8.4c1,0.8,2,1.7,2.8,2.6c0,0,0.1,0.1,0.1,0.1c3,3.4,4.7,7.9,4.7,12.6c0,10.5-8.6,19.1-19.1,19.1    c-10.5,0-19.1-8.6-19.1-19.1C17.2,17.6,20,12,24.8,8.4z M19.6,36.5c1.6,2.1,3.6,3.8,5.8,5.2v59.7c-6.1,3.7-10.2,10.4-10.2,18    c0,1.5,0.2,3,0.5,4.4C8.3,112,4.1,98.1,4.1,83.1C4.1,66.1,9.5,50.1,19.6,36.5z M29.4,140.5c21.5,0,83.4,0,105.2,0    c-14.4,13.2-33,20.5-52.6,20.5C61.7,161,43.3,153.2,29.4,140.5z M142.9,138.6h-40.1V85.3c0-8.6,5.5-16.3,13.7-19    c0.4-0.1,0.7-0.5,0.7-0.9V50.3h11.3v15.1c0,0.4,0.3,0.8,0.7,0.9c8.2,2.7,13.7,10.3,13.7,19V138.6z"></path></g><g><path d="M79.7,146.5c0-0.5-0.4-1-1-1H54.8c-0.5,0-1,0.4-1,1c0,0.5,0.4,1,1,1h23.9C79.3,147.5,79.7,147.1,79.7,146.5z"></path></g><g><path d="M87.5,146.5c0-0.5-0.4-1-1-1h-3.9c-0.5,0-1,0.4-1,1c0,0.5,0.4,1,1,1h3.9C87,147.5,87.5,147.1,87.5,146.5z"></path></g><g><path d="M89.9,147.5h2.6c0.5,0,1-0.4,1-1c0-0.5-0.4-1-1-1h-2.6c-0.5,0-1,0.4-1,1C88.9,147.1,89.3,147.5,89.9,147.5z"></path></g><g><path d="M109.2,150.3H85.3c-0.5,0-1,0.4-1,1c0,0.5,0.4,1,1,1h23.9c0.5,0,1-0.4,1-1C110.1,150.8,109.7,150.3,109.2,150.3z"></path></g><g><path d="M81.4,150.3h-3.9c-0.5,0-1,0.4-1,1c0,0.5,0.4,1,1,1h3.9c0.5,0,1-0.4,1-1C82.4,150.8,82,150.3,81.4,150.3z"></path></g><g><path d="M74.1,150.3h-2.6c-0.5,0-1,0.4-1,1c0,0.5,0.4,1,1,1h2.6c0.5,0,1-0.4,1-1C75.1,150.8,74.7,150.3,74.1,150.3z"></path></g><g><path d="M47.2,112.6l-10.4-6c-0.3-0.2-0.7-0.2-1,0l-10.4,6c-0.3,0.2-0.5,0.5-0.5,0.9v12c0,0.4,0.2,0.7,0.5,0.9l10.4,6    c0.2,0.1,0.3,0.1,0.5,0.1c0.2,0,0.3,0,0.5-0.1l10.4-6c0.3-0.2,0.5-0.5,0.5-0.9v-12C47.7,113.1,47.5,112.8,47.2,112.6z M45.7,124.9    l-9.4,5.5l-9.5-5.5V114l9.5-5.5l9.4,5.5V124.9z"></path></g><g><path d="M36.2,92.4c2.3,0,4.1-1.9,4.1-4.1V55.5c0-2.3-1.9-4.1-4.1-4.1c-2.3,0-4.1,1.9-4.1,4.1v32.8C32.1,90.5,33.9,92.4,36.2,92.4    z M34.1,55.5c0-1.2,1-2.2,2.2-2.2c1.2,0,2.2,1,2.2,2.2v32.8c0,1.2-1,2.2-2.2,2.2c-1.2,0-2.2-1-2.2-2.2V55.5z"></path></g><g><path d="M74,93c-2.1,0-3.7,1.7-3.7,3.7v31.1c0,2.1,1.7,3.7,3.7,3.7c2.1,0,3.7-1.7,3.7-3.7V96.8C77.7,94.7,76,93,74,93z     M75.8,127.9c0,1-0.8,1.8-1.8,1.8s-1.8-0.8-1.8-1.8V96.8c0-1,0.8-1.8,1.8-1.8s1.8,0.8,1.8,1.8V127.9z"></path></g><g><path d="M88,127.9V96.8c0-2.1-1.7-3.7-3.7-3.7c-2.1,0-3.7,1.7-3.7,3.7v31.1c0,2.1,1.7,3.7,3.7,3.7C86.3,131.7,88,130,88,127.9z     M86,127.9c0,1-0.8,1.8-1.8,1.8c-1,0-1.8-0.8-1.8-1.8V96.8c0-1,0.8-1.8,1.8-1.8c1,0,1.8,0.8,1.8,1.8V127.9z"></path></g><g><path d="M114.5,73c-3,1.2-4.7,3.8-3.9,6c0.6,1.5,2.2,2.3,4.1,2.3c0.9,0,1.8-0.2,2.7-0.5c3-1.2,4.7-3.8,3.9-6    C120.5,72.7,117.5,71.9,114.5,73z M116.8,79c-2.1,0.8-3.9,0.3-4.3-0.7c-0.4-1,0.7-2.6,2.7-3.4c0.7-0.3,1.4-0.4,2-0.4    c1.2,0,2.1,0.4,2.3,1.1C119.9,76.5,118.8,78.2,116.8,79z"></path></g><g><path d="M107.1,29.3c0.6,0,1.2-0.1,1.8-0.2c3.6-0.7,6.5-3.6,7.2-7.2c1.2-6.5-4.4-12-10.8-10.8c-3.6,0.7-6.5,3.6-7.2,7.2    C97,24.3,101.6,29.3,107.1,29.3z M100.1,18.7c0.5-2.8,2.8-5.1,5.7-5.7c5.1-1,9.5,3.4,8.5,8.5c-0.5,2.9-2.8,5.1-5.7,5.7    C103.5,28.1,99.1,23.8,100.1,18.7z"></path></g></g></svg>