<svg height='100px' width='100px'  fill="#1C0658" xmlns="http://www.w3.org/2000/svg" xmlns:xlink="http://www.w3.org/1999/xlink" version="1.1" x="0px" y="0px" viewBox="0 0 164 164" enable-background="new 0 0 164 164" xml:space="preserve"><g><g><path d="M159.2,85.8c0-13.9-3.7-27.6-10.8-39.4v-3c0-2.7-2.2-5-5-5c-0.2,0-0.3,0-0.5,0c-7.1-9.1-16.3-16.6-26.6-21.8    c-3-9-11.4-15.5-21.4-15.5C88.2,1,82.2,3.9,78,8.6c-6.6,0.3-13.1,1.5-19.3,3.5c-2.5-1.3-5.3-2-8.3-2c-9.4,0-17.1,7.2-17.9,16.4    C14.8,41.2,4.8,62.8,4.8,85.8C4.8,128.2,39.3,163,82,163C124.7,163,159.2,128.2,159.2,85.8z M157.3,85.8c0,21-8.6,39.9-22.5,53.6    h-32.3c0.5-0.9,0.6-2.1,0.1-3.1l-18-39.8c1.6-1.9,2.5-4.3,2.7-6.9h24.5c3,0,5.5-2.4,5.5-5.5v-8.2l21.3,8.4    c0.3,2.4,2.4,4.3,4.9,4.3c2.7,0,5-2.2,5-5V50.2C154.3,61.1,157.3,73.3,157.3,85.8z M74.9,139.4c-0.9,0-1.6-0.7-1.6-1.5l-1.9-33    c0-0.4-0.3-0.8-0.8-0.9c-0.4-0.1-0.8,0.1-1,0.5l-17.7,34.2c-0.5,0.7-1.4,1-2.2,0.6c-0.8-0.4-1.1-1.4-0.7-2.2l17.7-39.2    c2.2,2,5.1,3.2,8.3,3.2c3.2,0,6.1-1.2,8.3-3.2l17.7,39.1c0.4,0.8,0,1.7-0.7,2.2c-0.8,0.4-1.7,0.2-2.2-0.5l-17.8-34.2    c-0.2-0.4-0.6-0.6-1-0.5c-0.4,0.1-0.7,0.4-0.8,0.9l-1.9,33C76.5,138.7,75.8,139.4,74.9,139.4L74.9,139.4z M71.8,139.4H53.6    l16.1-31l1.7,29.6C71.4,138.5,71.5,138.9,71.8,139.4z M32.5,76.5h-4.8c-0.9,0-1.6-0.7-1.6-1.6V52c0-0.9,0.7-1.6,1.6-1.6h4.8V76.5z     M34.5,42.8c0-2,1.6-3.6,3.6-3.6h73.8c2,0,3.6,1.6,3.6,3.6c0,24.6,0,16.8,0,41.2c0,2-1.6,3.6-3.6,3.6H86.5H63.4H38    c-2,0-3.6-1.6-3.6-3.6C34.5,66.2,34.5,61.3,34.5,42.8z M138.5,82.2l-21.2-8.4V53.1l21.2-8.4V82.2z M85.5,89.5    c-0.5,5.4-5,9.6-10.5,9.6c-5.5,0-10.1-4.2-10.5-9.6H85.5z M78.5,137.9l1.7-29.5l16.1,31H78.1C78.3,138.9,78.5,138.4,78.5,137.9z     M146.5,43.3v40.3c0,1.7-1.4,3.1-3.1,3.1c-1.7,0-3.1-1.4-3.1-3.1v0V43.3v0c0-1.7,1.4-3.1,3.1-3.1    C145.1,40.2,146.5,41.6,146.5,43.3z M141,39c-1.3,0.8-2.3,2.1-2.5,3.7l-21.3,8.4v-8.2c0-2.7-2-5-4.6-5.4c3.1-4,4.8-8.8,4.8-13.9    c0-1.5-0.2-3.1-0.5-4.5C126.3,23.9,134.5,30.8,141,39z M94.9,2.9c11.4,0,20.6,9.3,20.6,20.6c0,5.1-1.9,10-5.4,13.8H79.6    c-3.5-3.8-5.4-8.7-5.4-13.8C74.3,12.2,83.5,2.9,94.9,2.9z M76.5,10.6c-2.6,3.7-4.1,8.1-4.1,12.9c0,5.1,1.7,9.9,4.8,13.8H65.8    c1.7-2.8,2.6-6,2.6-9.3c0-6-3-11.4-7.6-14.6C65.9,11.9,71.2,11,76.5,10.6z M50.4,12c8.9,0,16.1,7.2,16.1,16.1c0,3.4-1,6.6-3,9.3    H38c-0.2,0-0.5,0-0.7,0c-2-2.7-3-6-3-9.4C34.3,19.2,41.5,12,50.4,12z M6.7,85.8C6.7,63.9,16,43.4,32.4,29c0.2,3.2,1.2,6.3,3,9    c-1.7,0.9-2.9,2.7-2.9,4.8v5.6h-4.8c-1.9,0-3.5,1.6-3.5,3.5v22.9c0,1.9,1.6,3.5,3.5,3.5h4.8V84c0,3,2.4,5.5,5.5,5.5h24.5    c0.2,2.6,1.2,5,2.7,6.9l-18,39.8c-0.5,1-0.4,2.2,0.1,3.1H29.1C15.3,125.7,6.7,106.7,6.7,85.8z M31.1,141.3h43.8c0,0,0,0,0,0    c0,0,0,0,0,0h57.9c-13.4,12.3-31.3,19.8-50.9,19.8C62.4,161.1,44.5,153.6,31.1,141.3z"></path></g><g><path d="M79.8,147.1c0-0.5-0.4-1-1-1H55.7c-0.5,0-1,0.4-1,1c0,0.5,0.4,1,1,1h23.1C79.4,148,79.8,147.6,79.8,147.1z"></path></g><g><path d="M87.3,147.1c0-0.5-0.4-1-1-1h-3.8c-0.5,0-1,0.4-1,1c0,0.5,0.4,1,1,1h3.8C86.9,148,87.3,147.6,87.3,147.1z"></path></g><g><path d="M89.6,148h2.5c0.5,0,1-0.4,1-1c0-0.5-0.4-1-1-1h-2.5c-0.5,0-1,0.4-1,1C88.7,147.6,89.1,148,89.6,148z"></path></g><g><path d="M108.3,150.8H85.2c-0.5,0-1,0.4-1,1c0,0.5,0.4,1,1,1h23.1c0.5,0,1-0.4,1-1C109.2,151.2,108.8,150.8,108.3,150.8z"></path></g><g><path d="M81.5,150.8h-3.8c-0.5,0-1,0.4-1,1c0,0.5,0.4,1,1,1h3.8c0.5,0,1-0.4,1-1C82.4,151.2,82,150.8,81.5,150.8z"></path></g><g><path d="M74.4,150.8h-2.5c-0.5,0-1,0.4-1,1c0,0.5,0.4,1,1,1h2.5c0.5,0,1-0.4,1-1C75.3,151.2,74.9,150.8,74.4,150.8z"></path></g><g><path d="M94.9,33.1c5.3,0,9.5-4.3,9.5-9.5c0-5.3-4.3-9.5-9.5-9.5c-5.3,0-9.5,4.3-9.5,9.5C85.4,28.8,89.7,33.1,94.9,33.1z     M94.9,15.9c4.2,0,7.6,3.4,7.6,7.6c0,4.2-3.4,7.6-7.6,7.6c-4.2,0-7.6-3.4-7.6-7.6C87.3,19.3,90.7,15.9,94.9,15.9z"></path></g><g><path d="M50.4,35.8c4.3,0,7.7-3.5,7.7-7.7c0-4.3-3.5-7.7-7.7-7.7c-4.3,0-7.7,3.5-7.7,7.7C42.7,32.3,46.1,35.8,50.4,35.8z     M50.4,22.2c3.2,0,5.8,2.6,5.8,5.8s-2.6,5.8-5.8,5.8c-3.2,0-5.8-2.6-5.8-5.8S47.2,22.2,50.4,22.2z"></path></g><g><path d="M69.7,81h37.6c0.5,0,1-0.4,1-1V57.6c0-0.5-0.4-1-1-1H69.7c-0.5,0-1,0.4-1,1V80C68.8,80.5,69.2,81,69.7,81z M70.7,58.6    h35.7v20.5H70.7V58.6z"></path></g><g><path d="M96,63.6c-2.9,0-5.2,2.3-5.2,5.2s2.3,5.2,5.2,5.2c2.9,0,5.2-2.3,5.2-5.2S98.9,63.6,96,63.6z M96,72.1    c-1.8,0-3.3-1.5-3.3-3.3c0-1.8,1.5-3.3,3.3-3.3c1.8,0,3.3,1.5,3.3,3.3C99.3,70.7,97.8,72.1,96,72.1z"></path></g><g><path d="M81.1,63.6c-2.9,0-5.2,2.3-5.2,5.2s2.3,5.2,5.2,5.2c2.9,0,5.2-2.3,5.2-5.2S83.9,63.6,81.1,63.6z M81.1,72.1    c-1.8,0-3.3-1.5-3.3-3.3c0-1.8,1.5-3.3,3.3-3.3c1.8,0,3.3,1.5,3.3,3.3C84.4,70.7,82.9,72.1,81.1,72.1z"></path></g><g><path d="M44.3,81h8.4c2.5,0,4.5-2,4.5-4.5v-8.4c0-2.5-2-4.5-4.5-4.5h-8.4c-2.5,0-4.5,2-4.5,4.5v8.4C39.8,79,41.8,81,44.3,81z     M41.7,68.1c0-1.4,1.2-2.6,2.6-2.6h8.4c1.4,0,2.6,1.2,2.6,2.6v8.4c0,1.4-1.2,2.6-2.6,2.6h-8.4c-1.4,0-2.6-1.2-2.6-2.6V68.1z"></path></g></g></svg>