<svg xmlns="http://www.w3.org/2000/svg" viewBox="0 0 64 80" x="0px" y="0px"><title>chassis-scan-car-wheels-transportation</title><g><path d="M14,62h6a1,1,0,0,0,1-1V56h4v5h2V56h2.184a2.982,2.982,0,0,0,5.632,0H43v5a1,1,0,0,0,1,1h6a1,1,0,0,0,1-1V49a1,1,0,0,0-1-1H44a1,1,0,0,0-1,1v5H34.816A3,3,0,0,0,33,52.184V22.414l3.707-3.707A1,1,0,0,0,37,18V11h2V22H37v2h6V22H41V11h2v5a1,1,0,0,0,1,1h6a1,1,0,0,0,1-1V4a1,1,0,0,0-1-1H44a1,1,0,0,0-1,1V9H37V6a1,1,0,0,0-1-1H28a1,1,0,0,0-1,1V9H21V4a1,1,0,0,0-1-1H14a1,1,0,0,0-1,1V16a1,1,0,0,0,1,1h6a1,1,0,0,0,1-1V11h6v7a1,1,0,0,0,.293.707l.707.707v1.172l-2.707,2.707A1,1,0,0,0,25,24V41H24a1,1,0,0,0-1,1v8a1,1,0,0,0,1,1h1v3H21V49a1,1,0,0,0-1-1H14a1,1,0,0,0-1,1V61A1,1,0,0,0,14,62ZM45,50h4V60H45ZM45,5h4V15H45ZM19,15H15V5h4ZM32,56a1,1,0,1,1,1-1A1,1,0,0,1,32,56ZM29,7h6V17.586l-3,3-3-3ZM25,43h2v6H25Zm2,8h1a1,1,0,0,0,1-1V42a1,1,0,0,0-1-1H27V24.414l2.707-2.707a.982.982,0,0,0,.224-.362L31,22.414v29.77A3,3,0,0,0,29.184,54H27ZM15,50h4V60H15Z"/></g><text x="0" y="79" fill="#000000" font-size="5px" font-weight="bold" font-family="'Helvetica Neue', Helvetica, Arial-Unicode, Arial, Sans-serif">Created by pongsakorn</text><text x="0" y="84" fill="#000000" font-size="5px" font-weight="bold" font-family="'Helvetica Neue', Helvetica, Arial-Unicode, Arial, Sans-serif">from the Noun Project</text></svg>