<svg height='100px' width='100px'  fill="#1C0658" xmlns="http://www.w3.org/2000/svg" xmlns:xlink="http://www.w3.org/1999/xlink" version="1.1" x="0px" y="0px" viewBox="0 0 164 164" enable-background="new 0 0 164 164" xml:space="preserve"><g><g><path d="M163,82c0-44.7-36.3-81-81-81C37.3,1,1,37.3,1,82c0,44.5,36.2,81,81,81C126.6,163,163,126.7,163,82z M3,82    C3,38.4,38.4,3,82,3c43.6,0,79,35.4,79,79c0,22-9,41.9-23.6,56.2h-26.2v-4.6c0-4.3-3.5-7.9-7.9-7.9h-3.7c-3.2,0-5.9-2.6-5.9-5.9    v-0.4c0-1.1,0.3-2.2,0.9-3.1c16.2-5.4,27.9-20.7,27.9-38.6c0-22.4-18.3-40.7-40.7-40.7c-22.4,0-40.7,18.3-40.7,40.7    c0,18.3,12.1,33.8,28.7,38.9c0.6,0.9,1,2,1,3.2c0,3.2-2.6,5.9-5.8,5.9h-3.7c-4.3,0-7.9,3.5-7.9,7.9v4.6h-27C12,123.9,3,104,3,82z     M55.6,138.2v-4.6c0-3.2,2.6-5.9,5.9-5.9h3.7c4.3,0,7.8-3.5,7.8-7.9c0-0.9-0.1-1.7-0.4-2.5c3,0.7,6.2,1.1,9.4,1.1    c3.5,0,6.9-0.5,10.2-1.3c-0.2,0.7-0.4,1.5-0.4,2.3v0.4c0,4.3,3.5,7.9,7.9,7.9h3.7c3.2,0,5.9,2.6,5.9,5.9v4.6H55.6z M82,116.6    c-21.3,0-38.7-17.4-38.7-38.7c0-21.3,17.4-38.7,38.7-38.7c21.3,0,38.7,17.4,38.7,38.7C120.7,99.2,103.3,116.6,82,116.6z     M28.7,140.2c33.2,0,7.8,0,106.7,0C121.3,153.1,102.5,161,82,161C61.5,161,42.7,153.1,28.7,140.2z"></path></g><g><path d="M79.7,146.3c0-0.6-0.4-1-1-1H54.5c-0.6,0-1,0.4-1,1c0,0.6,0.4,1,1,1h24.2C79.2,147.3,79.7,146.8,79.7,146.3z"></path></g><g><path d="M87.6,146.3c0-0.6-0.4-1-1-1h-4c-0.6,0-1,0.4-1,1c0,0.6,0.4,1,1,1h4C87.1,147.3,87.6,146.8,87.6,146.3z"></path></g><g><path d="M90,147.3h2.6c0.6,0,1-0.4,1-1c0-0.6-0.4-1-1-1H90c-0.6,0-1,0.4-1,1C89,146.8,89.4,147.3,90,147.3z"></path></g><g><path d="M109.5,150.2H85.3c-0.6,0-1,0.4-1,1c0,0.6,0.4,1,1,1h24.2c0.6,0,1-0.4,1-1C110.5,150.6,110.1,150.2,109.5,150.2z"></path></g><g><path d="M81.4,150.2h-4c-0.6,0-1,0.4-1,1c0,0.6,0.4,1,1,1h4c0.6,0,1-0.4,1-1C82.4,150.6,82,150.2,81.4,150.2z"></path></g><g><path d="M74,150.2h-2.6c-0.6,0-1,0.4-1,1c0,0.6,0.4,1,1,1H74c0.6,0,1-0.4,1-1C75,150.6,74.6,150.2,74,150.2z"></path></g><g><path d="M82,48.4c-16.3,0-29.5,13.2-29.5,29.5s13.2,29.5,29.5,29.5c16.3,0,29.5-13.2,29.5-29.5S98.3,48.4,82,48.4z M82,105.3    c-15.2,0-27.5-12.3-27.5-27.5c0-15.2,12.3-27.5,27.5-27.5c15.2,0,27.5,12.3,27.5,27.5C109.5,93,97.2,105.3,82,105.3z"></path></g><g><path d="M82,61.1c-0.8,0-1.6,0.1-2.4,0.2c-0.4,0.1-0.7,0.4-0.8,0.8c-0.1,0.4,0.1,0.8,0.4,1c1.5,1,2.4,2.6,2.4,4.4    c0,2.9-2.4,5.3-5.3,5.3c-2.9,0-5.2-2.3-5.3-5.2c0-0.4-0.3-0.8-0.7-0.9c-0.4-0.1-0.8,0-1.1,0.3c-2.6,3-4.1,6.9-4.1,11    c0,9.2,7.5,16.8,16.8,16.8c9.2,0,16.8-7.5,16.8-16.8C98.8,68.6,91.2,61.1,82,61.1z M82,92.6c-8.1,0-14.8-6.6-14.8-14.8    c0-2.8,0.8-5.5,2.3-7.9c1,2.8,3.7,4.7,6.8,4.7c4,0,7.3-3.3,7.3-7.3c0-1.6-0.5-3.1-1.5-4.4c8.1,0.1,14.7,6.7,14.7,14.8    C96.8,86,90.1,92.6,82,92.6z"></path></g><g><path d="M80.4,74.6c-2.3,0-4.1,1.9-4.1,4.1s1.9,4.1,4.1,4.1c2.3,0,4.1-1.9,4.1-4.1S82.7,74.6,80.4,74.6z M80.4,80.8    c-1.2,0-2.1-1-2.1-2.1c0-1.2,1-2.1,2.1-2.1c1.2,0,2.1,1,2.1,2.1C82.5,79.9,81.5,80.8,80.4,80.8z"></path></g><g><path d="M80.4,34.8c0.6,0,1-0.4,1-1v-6.3c0-0.6-0.4-1-1-1c-0.6,0-1,0.4-1,1v6.3C79.4,34.4,79.8,34.8,80.4,34.8z"></path></g><g><path d="M80.4,24.8c0.6,0,1-0.4,1-1v-2.3c0-0.6-0.4-1-1-1c-0.6,0-1,0.4-1,1v2.3C79.4,24.4,79.8,24.8,80.4,24.8z"></path></g><g><path d="M88,35.2c0.5,0,0.9-0.3,1-0.8l1.1-6.3c0.1-0.5-0.3-1.1-0.8-1.2c-0.5-0.1-1.1,0.3-1.2,0.8l-1.1,6.3    C86.9,34.7,87.4,35.2,88,35.2z"></path></g><g><path d="M95.2,36.9c0.5,0.2,1.1-0.1,1.3-0.6l2.2-6c0.2-0.5-0.1-1.1-0.6-1.3c-0.5-0.2-1.1,0.1-1.3,0.6l-2.2,6    C94.4,36.1,94.7,36.7,95.2,36.9z"></path></g><g><path d="M98.6,27.5c0.1,0,0.2,0.1,0.3,0.1c0.4,0,0.8-0.3,0.9-0.7l0.8-2.2c0.2-0.5-0.1-1.1-0.6-1.3c-0.5-0.2-1.1,0.1-1.3,0.6    L98,26.2C97.8,26.7,98.1,27.3,98.6,27.5z"></path></g><g><path d="M102.1,39.8c0.5,0.3,1.1,0.1,1.4-0.4l3.2-5.5c0.3-0.5,0.1-1.1-0.4-1.4c-0.5-0.3-1.1-0.1-1.4,0.4l-3.2,5.5    C101.5,38.9,101.6,39.5,102.1,39.8z"></path></g><g><path d="M109.8,43.7l4.1-4.9c0.4-0.4,0.3-1.1-0.1-1.4c-0.4-0.4-1.1-0.3-1.4,0.1l-4.1,4.9c-0.4,0.4-0.3,1.1,0.1,1.4    C108.8,44.2,109.5,44.2,109.8,43.7z"></path></g><g><path d="M115.5,36.4c0.3,0,0.6-0.1,0.8-0.4l1.5-1.8c0.4-0.4,0.3-1.1-0.1-1.4c-0.4-0.4-1.1-0.3-1.4,0.1l-1.5,1.8    c-0.4,0.4-0.3,1.1,0.1,1.4C115,36.3,115.3,36.4,115.5,36.4z"></path></g><g><path d="M113.9,49c0.3,0.4,1,0.5,1.4,0.1l4.9-4.1c0.4-0.4,0.5-1,0.1-1.4c-0.4-0.4-1-0.5-1.4-0.1l-4.9,4.1    C113.6,47.9,113.6,48.5,113.9,49z"></path></g><g><path d="M118.4,54.9c0.3,0.5,0.9,0.6,1.4,0.4l5.5-3.2c0.5-0.3,0.6-0.9,0.4-1.4c-0.3-0.5-0.9-0.6-1.4-0.4l-5.5,3.2    C118.3,53.9,118.2,54.5,118.4,54.9z"></path></g><g><path d="M128.5,50.3l2-1.2c0.5-0.3,0.6-0.9,0.4-1.4c-0.3-0.5-0.9-0.6-1.4-0.4l-2,1.2c-0.5,0.3-0.6,0.9-0.4,1.4    C127.4,50.4,128,50.6,128.5,50.3z"></path></g><g><path d="M123.1,62.2l6-2.2c0.5-0.2,0.8-0.8,0.6-1.3c-0.2-0.5-0.8-0.8-1.3-0.6l-6,2.2c-0.5,0.2-0.8,0.8-0.6,1.3    C122.1,62.1,122.6,62.4,123.1,62.2z"></path></g><g><path d="M124.1,68.8c0.1,0.5,0.6,0.9,1.2,0.8l6.3-1.1c0.5-0.1,0.9-0.6,0.8-1.2c-0.1-0.5-0.6-0.9-1.2-0.8l-6.3,1.1    C124.3,67.7,124,68.3,124.1,68.8z"></path></g><g><path d="M135.1,67.9l2.3-0.4c0.5-0.1,0.9-0.6,0.8-1.2c-0.1-0.5-0.6-0.9-1.2-0.8l-2.3,0.4c-0.5,0.1-0.9,0.6-0.8,1.2    C134.1,67.6,134.6,68,135.1,67.9z"></path></g><g><path d="M125,76.2c0,0.6,0.4,1,1,1h6.3c0.6,0,1-0.4,1-1c0-0.6-0.4-1-1-1H126C125.5,75.2,125,75.7,125,76.2z"></path></g><g><path d="M132.1,84l-6.3-1.1c-0.5-0.1-1.1,0.3-1.2,0.8c-0.1,0.5,0.3,1.1,0.8,1.2l6.2,1.1c0.5,0.1,1.1-0.3,1.2-0.8    C133,84.6,132.6,84.1,132.1,84z"></path></g><g><path d="M135.7,84.7c-0.5-0.1-1.1,0.3-1.2,0.8c-0.1,0.5,0.3,1.1,0.8,1.2l2.3,0.4c0.5,0.1,1.1-0.3,1.2-0.8c0.1-0.5-0.3-1.1-0.8-1.2    L135.7,84.7z"></path></g><g><path d="M123.6,92.3l6,2.2c0.5,0.2,1.1-0.1,1.3-0.6c0.2-0.5-0.1-1.1-0.6-1.3l-6-2.2c-0.5-0.2-1.1,0.1-1.3,0.6    C122.8,91.6,123.1,92.1,123.6,92.3z"></path></g><g><path d="M126.9,100.8l-5.5-3.2c-0.5-0.3-1.1-0.1-1.4,0.4c-0.3,0.5-0.1,1.1,0.4,1.4l5.5,3.2c0.5,0.3,1.1,0.1,1.4-0.4    C127.6,101.7,127.4,101,126.9,100.8z"></path></g><g><path d="M132.1,103.8l-2-1.2c-0.5-0.3-1.1-0.1-1.4,0.4c-0.3,0.5-0.1,1.1,0.4,1.4l2,1.2c0.5,0.3,1.1,0.1,1.4-0.4    C132.8,104.7,132.6,104,132.1,103.8z"></path></g><g><path d="M117.4,104.1c-0.4-0.4-1.1-0.3-1.4,0.1c-0.4,0.4-0.3,1.1,0.1,1.4l4.9,4.1c0.4,0.4,1.1,0.3,1.4-0.1    c0.4-0.4,0.3-1.1-0.1-1.4L117.4,104.1z"></path></g><g><path d="M112.3,109.9c-0.4-0.4-1-0.5-1.4-0.1c-0.4,0.4-0.5,1-0.1,1.4l4.1,4.9c0.3,0.4,1,0.5,1.4,0.1c0.4-0.4,0.5-1,0.1-1.4    L112.3,109.9z"></path></g><g><path d="M118.7,117.6c-0.4-0.4-1-0.5-1.4-0.1c-0.4,0.4-0.5,1-0.1,1.4l1.5,1.8c0.3,0.4,1,0.5,1.4,0.1c0.4-0.4,0.5-1,0.1-1.4    L118.7,117.6z"></path></g><g><path d="M72.9,35.8c0.5-0.1,0.9-0.6,0.8-1.2l-1.1-6.2c-0.1-0.5-0.6-0.9-1.2-0.8c-0.5,0.1-0.9,0.6-0.8,1.2l1.1,6.3    C71.9,35.5,72.4,35.9,72.9,35.8z"></path></g><g><path d="M62.3,31.4l2.2,6c0.2,0.5,0.8,0.8,1.3,0.6c0.5-0.2,0.8-0.8,0.6-1.3l-2.2-6c-0.2-0.5-0.8-0.8-1.3-0.6    C62.4,30.3,62.1,30.9,62.3,31.4z"></path></g><g><path d="M61,28c0.1,0.4,0.5,0.7,0.9,0.7c0.1,0,0.2,0,0.3-0.1c0.5-0.2,0.8-0.8,0.6-1.3l-0.8-2.2c-0.2-0.5-0.8-0.8-1.3-0.6    c-0.5,0.2-0.8,0.8-0.6,1.3L61,28z"></path></g><g><path d="M57.7,41.1c0.3,0.5,0.9,0.6,1.4,0.4c0.5-0.3,0.6-0.9,0.4-1.4l-3.2-5.5c-0.3-0.5-0.9-0.6-1.4-0.4c-0.5,0.3-0.6,0.9-0.4,1.4    L57.7,41.1z"></path></g><g><path d="M51.7,45.8c0.3,0.4,1,0.5,1.4,0.1c0.4-0.4,0.5-1,0.1-1.4l-4.1-4.9c-0.4-0.4-1-0.5-1.4-0.1c-0.4,0.4-0.5,1-0.1,1.4    L51.7,45.8z"></path></g><g><path d="M45.3,38.2c0.2,0.2,0.5,0.4,0.8,0.4c0.2,0,0.5-0.1,0.6-0.2c0.4-0.4,0.5-1,0.1-1.4l-1.5-1.8c-0.4-0.4-1-0.5-1.4-0.1    c-0.4,0.4-0.5,1-0.1,1.4L45.3,38.2z"></path></g><g><path d="M46.6,51.6c0.4,0.4,1.1,0.3,1.4-0.1c0.4-0.4,0.3-1.1-0.1-1.4L43,46c-0.4-0.4-1.1-0.3-1.4,0.1c-0.4,0.4-0.3,1.1,0.1,1.4    L46.6,51.6z"></path></g><g><path d="M37.1,55l5.5,3.2c0.5,0.3,1.1,0.1,1.4-0.4c0.3-0.5,0.1-1.1-0.4-1.4l-5.5-3.2c-0.5-0.3-1.1-0.1-1.4,0.4    C36.4,54.1,36.6,54.7,37.1,55z"></path></g><g><path d="M31.9,52l2,1.2c0.2,0.1,0.3,0.1,0.5,0.1c0.3,0,0.7-0.2,0.9-0.5c0.3-0.5,0.1-1.1-0.4-1.4l-2-1.2c-0.5-0.3-1.1-0.1-1.4,0.4    C31.2,51.1,31.4,51.7,31.9,52z"></path></g><g><path d="M41,64.7c0.2-0.5-0.1-1.1-0.6-1.3l-6-2.2c-0.5-0.2-1.1,0.1-1.3,0.6c-0.2,0.5,0.1,1.1,0.6,1.3l6,2.2    C40.3,65.5,40.8,65.2,41,64.7z"></path></g><g><path d="M31.9,71.7l6.3,1.1c0.5,0.1,1.1-0.3,1.2-0.8c0.1-0.5-0.3-1.1-0.8-1.2l-6.3-1.1c-0.5-0.1-1.1,0.3-1.2,0.8    C31,71.1,31.4,71.6,31.9,71.7z"></path></g><g><path d="M28.3,71.1c0.5,0.1,1.1-0.3,1.2-0.8c0.1-0.5-0.3-1.1-0.8-1.2l-2.3-0.4c-0.5-0.1-1.1,0.3-1.2,0.8c-0.1,0.5,0.3,1.1,0.8,1.2    L28.3,71.1z"></path></g><g><path d="M31.6,80.5H38c0.6,0,1-0.4,1-1c0-0.6-0.4-1-1-1h-6.3c-0.6,0-1,0.4-1,1C30.6,80,31.1,80.5,31.6,80.5z"></path></g><g><path d="M39.9,86.9c-0.1-0.5-0.6-0.9-1.2-0.8l-6.3,1.1c-0.5,0.1-0.9,0.6-0.8,1.2c0.1,0.5,0.6,0.9,1.2,0.8l6.3-1.1    C39.7,88,40,87.5,39.9,86.9z"></path></g><g><path d="M26.9,90.2l2.3-0.4c0.5-0.1,0.9-0.6,0.8-1.2c-0.1-0.5-0.6-0.9-1.2-0.8l-2.3,0.4c-0.5,0.1-0.9,0.6-0.8,1.2    C25.9,90,26.4,90.3,26.9,90.2z"></path></g><g><path d="M40.9,93.5l-6,2.2c-0.5,0.2-0.8,0.8-0.6,1.3c0.2,0.5,0.8,0.8,1.3,0.6l6-2.2c0.5-0.2,0.8-0.8,0.6-1.3    C41.9,93.6,41.4,93.3,40.9,93.5z"></path></g><g><path d="M38.3,105c0.3,0.5,0.9,0.6,1.4,0.4l5.5-3.2c0.5-0.3,0.6-0.9,0.4-1.4c-0.3-0.5-0.9-0.6-1.4-0.4l-5.5,3.2    C38.2,103.9,38.1,104.5,38.3,105z"></path></g><g><path d="M35.5,105.4l-2,1.2c-0.5,0.3-0.6,0.9-0.4,1.4c0.3,0.5,0.9,0.6,1.4,0.4l2-1.2c0.5-0.3,0.6-0.9,0.4-1.4    C36.6,105.3,36,105.1,35.5,105.4z"></path></g><g><path d="M43.7,112.1c0.3,0.4,1,0.5,1.4,0.1l4.9-4.1c0.4-0.4,0.5-1,0.1-1.4c-0.4-0.4-1-0.5-1.4-0.1l-4.9,4.1    C43.4,111.1,43.3,111.7,43.7,112.1z"></path></g><g><path d="M50.2,118.3c0.4,0.4,1.1,0.3,1.4-0.1l4.1-4.9c0.4-0.4,0.3-1.1-0.1-1.4c-0.4-0.4-1.1-0.3-1.4,0.1l-4.1,4.9    C49.8,117.3,49.8,117.9,50.2,118.3z"></path></g><g><path d="M47.7,119.7l-1.5,1.8c-0.4,0.4-0.3,1.1,0.1,1.4c0.4,0.4,1.1,0.3,1.4-0.1l1.5-1.8c0.4-0.4,0.3-1.1-0.1-1.4    C48.7,119.2,48.1,119.2,47.7,119.7z"></path></g></g></svg>